<svg width="85" height="84" viewBox="0 0 85 84" fill="none" xmlns="http://www.w3.org/2000/svg">
<path d="M40.3109 34.1723C31.8727 31.7923 21.6909 34.7196 14.9072 40.1414C10.1345 43.9469 -0.556394 57.4887 8.42906 62.4523C10.1091 63.3814 12.1454 63.3559 14.0672 63.305C25.98 63.0123 37.8927 63.6105 49.7927 63.3178L59.2363 51.7868C56.4872 43.6796 48.7363 36.5523 40.3109 34.1723Z" fill="#3366FF"/>
<path d="M54.2218 43.2344C54.8454 44.3926 55.38 45.5889 55.8 46.8107C52.8016 50.4731 49.0172 53.4136 44.7275 55.4142C40.4378 57.4147 35.7528 58.424 31.0199 58.3671C24.2236 58.278 17.4272 58.1635 10.6309 58.3289C8.70904 58.3798 6.67268 58.3926 4.99268 57.4762C5.19631 59.4744 6.21449 61.2307 8.44177 62.4653C10.1218 63.3944 12.1581 63.3689 14.0799 63.318C25.9927 63.0253 37.9054 63.6235 49.8054 63.3307L59.249 51.7998C58.2054 48.7326 56.449 45.818 54.2218 43.2344Z" fill="black" fill-opacity="0.063"/>
<path d="M40.0309 26.3446C49.6018 19.5992 46.6618 4.78462 35.0163 3.51189C24.8472 2.40462 17.2999 10.5755 21.8309 20.5283C24.8599 27.2101 33.6163 30.8628 40.0309 26.3446Z" fill="#3366FF"/>
<path d="M65.2946 80.5889C73.4484 80.5889 80.0583 74.1442 80.0583 66.1943C80.0583 58.2445 73.4484 51.7998 65.2946 51.7998C57.1409 51.7998 50.531 58.2445 50.531 66.1943C50.531 74.1442 57.1409 80.5889 65.2946 80.5889Z" fill="#3366FF"/>
<path d="M75.2473 55.5791C75.8327 57.1191 76.1636 58.7864 76.1636 60.53C76.1636 68.4846 69.5582 74.9246 61.4 74.9246C57.5564 74.9246 54.0691 73.4864 51.4473 71.1318C53.5218 76.6427 58.9309 80.5882 65.2945 80.5882C73.44 80.5882 80.0582 74.1355 80.0582 66.1936C80.0454 61.9936 78.1873 58.2136 75.2473 55.5791Z" fill="black" fill-opacity="0.063"/>
<path d="M42.4746 64.3353C38.9364 64.3353 35.3982 64.2844 31.9364 64.2462C26.0819 64.1699 20.0364 64.0935 14.0928 64.2335C12.2346 64.2844 9.93096 64.3353 7.98368 63.2535C5.59096 61.9426 4.26732 59.9826 4.05096 57.4372C3.50368 50.9462 10.4655 42.4953 14.3219 39.4153C21.8055 33.4335 32.3564 30.9644 40.5528 33.2808C49.411 35.7753 57.2764 43.1062 60.1273 51.5062C60.2928 51.9899 60.0255 52.5244 59.5419 52.6899C59.0455 52.8553 58.5237 52.6008 58.3582 52.1044C55.7364 44.379 48.2019 37.379 40.0564 35.0753C32.4073 32.9244 22.531 35.2408 15.4928 40.879C11.8019 43.8062 5.43823 51.8117 5.90914 57.2717C6.07459 59.1935 7.04187 60.619 8.88732 61.6372C10.3891 62.4644 12.3364 62.4262 14.0546 62.3753C20.0364 62.2353 26.0946 62.3117 31.9619 62.3881C37.8037 62.4644 43.8491 62.5408 49.78 62.4008H49.8055C50.3146 62.4008 50.7219 62.8081 50.7346 63.3172C50.738 63.4402 50.7169 63.5627 50.6725 63.6776C50.6281 63.7924 50.5613 63.8973 50.4761 63.9861C50.3908 64.0749 50.2888 64.1459 50.1758 64.1949C50.0629 64.244 49.9413 64.2701 49.8182 64.2717C47.3873 64.3226 44.9182 64.3353 42.4746 64.3353Z" fill="#D6E4FF"/>
<path d="M65.2945 81.5301C56.64 81.5301 49.6018 74.6574 49.6018 66.1938C49.6018 57.7301 56.64 50.8574 65.2945 50.8574C73.9491 50.8574 80.9873 57.7301 80.9873 66.1938C80.9873 74.6574 73.9491 81.5301 65.2945 81.5301ZM65.2945 52.7283C57.6709 52.7283 51.4727 58.7738 51.4727 66.1938C51.4727 73.6138 57.6709 79.6592 65.2945 79.6592C72.9182 79.6592 79.1164 73.6138 79.1164 66.1938C79.1164 58.7738 72.9182 52.7283 65.2945 52.7283Z" fill="white"/>
<path d="M72.1801 67.1228H59.2365C58.7147 67.1228 58.3074 66.7028 58.3074 66.1937C58.3074 65.6846 58.7274 65.2646 59.2365 65.2646H72.1674C72.6892 65.2646 73.0965 65.6846 73.0965 66.1937C73.0965 66.7028 72.6892 67.1228 72.1801 67.1228Z" fill="#D6E4FF"/>
<path d="M65.7018 74.9631C65.1927 74.9631 64.7854 74.5685 64.7727 74.0594L64.3527 60.5558C64.3399 60.034 64.7472 59.614 65.2563 59.5885C65.7399 59.5758 66.1981 59.9831 66.2236 60.4922L66.6436 73.9958C66.6563 74.5176 66.249 74.9376 65.7399 74.9631H65.7018ZM33.7181 29.2722C32.5981 29.2722 31.4654 29.1194 30.3199 28.814C26.209 27.7067 22.7218 24.7413 20.9654 20.9103C18.8272 16.2267 19.1072 11.4667 21.729 7.85216C24.5545 3.94489 29.5436 1.97216 35.1054 2.58307C40.6163 3.18125 44.8927 6.83398 46.2545 12.1031C47.7181 17.754 45.4781 23.6467 40.5654 27.1085C38.5645 28.5262 36.1703 29.2827 33.7181 29.2722ZM33.1454 4.33943C28.9963 4.33943 25.369 5.99398 23.2436 8.94671C21.0036 12.0522 20.7999 16.0231 22.6708 20.134C24.1854 23.4685 27.2272 26.0394 30.8163 27.0067C33.909 27.8467 36.989 27.3376 39.4963 25.5685C43.7727 22.5522 45.7199 17.4485 44.4599 12.5485C43.2763 7.97943 39.7127 4.95034 34.9145 4.42852C34.3163 4.37761 33.7308 4.33943 33.1454 4.33943Z" fill="#D6E4FF"/>
<path d="M26.9347 19.3319C26.8711 19.4082 26.1965 19.0646 25.522 18.0719C24.8602 17.1046 24.2747 15.4119 24.6438 13.5664C25.0256 11.721 26.2347 10.3973 27.2402 9.78643C28.2584 9.13734 29.0093 9.08643 29.0347 9.18824C29.0856 9.31552 28.4365 9.59552 27.6093 10.2955C26.7947 10.9828 25.8402 12.1919 25.5093 13.7573C25.1911 15.3228 25.5856 16.8119 26.0565 17.7664C26.5402 18.721 27.0365 19.2301 26.9347 19.3319ZM27.0111 55.4137C27.0111 55.6555 23.3965 55.9228 18.9293 55.7701C14.462 55.6173 10.8602 55.1082 10.8856 54.8664C10.9111 54.6119 14.5129 54.7392 18.9547 54.8792C23.3965 55.0446 26.9984 55.1719 27.0111 55.4137Z" fill="#6690FF"/>
</svg>
