<svg width="25" height="24" viewBox="0 0 25 24" fill="none" xmlns="http://www.w3.org/2000/svg">
<mask id="mask0_4350_11526" style="mask-type:alpha" maskUnits="userSpaceOnUse" x="4" y="1" width="17" height="22">
<path d="M19.6 19.1602C20.0964 18.4133 20.5184 17.6195 20.86 16.7902C20.094 16.4966 19.4274 15.9909 18.9382 15.3323C18.449 14.6737 18.1575 13.8895 18.0977 13.0713C18.0379 12.2531 18.2123 11.4348 18.6006 10.712C18.9888 9.98934 19.5748 9.39212 20.29 8.99024C19.8529 8.40224 19.2906 7.91869 18.6439 7.57454C17.9971 7.23039 17.2819 7.03423 16.55 7.00024C15.7884 7.00881 15.0365 7.17212 14.34 7.48024C13.8644 7.6958 13.3517 7.81801 12.83 7.84024C12.2481 7.81057 11.676 7.67855 11.14 7.45024C10.4899 7.17635 9.79507 7.02384 9.09 7.00024C8.25811 7.04548 7.45006 7.29438 6.7369 7.72507C6.02373 8.15575 5.42729 8.75504 5 9.47024C3.58 11.6702 3.83 15.7902 6.121 19.3102C6.941 20.5702 8.041 21.9802 9.471 22.0002C9.96645 21.9966 10.4537 21.8731 10.891 21.6402C11.4947 21.3327 12.1635 21.1749 12.841 21.1802C13.5159 21.1698 14.1827 21.3279 14.781 21.6402C15.2075 21.8732 15.6851 21.9968 16.171 22.0002C17.621 21.9802 18.78 20.4202 19.6 19.1602Z" fill="black"/>
<path d="M16.3401 1.99976C16.3943 2.52517 16.3445 3.05612 16.1935 3.56228C16.0425 4.06845 15.7933 4.53991 15.4601 4.94976C15.1331 5.38242 14.712 5.73508 14.2287 5.98109C13.7453 6.22709 13.2124 6.35999 12.6701 6.36976C12.6106 5.85347 12.6599 5.33043 12.8149 4.83438C12.9699 4.33833 13.2272 3.88027 13.5701 3.48976C14.275 2.66467 15.2631 2.13316 16.3401 1.99976Z" fill="black"/>
</mask>
<g mask="url(#mask0_4350_11526)">
<path opacity="0.58" d="M0.5 0H24.5V24H0.5V0Z" fill="#070607"/>
<path d="M19.6 19.1602C20.0964 18.4133 20.5184 17.6195 20.86 16.7902C20.094 16.4966 19.4274 15.9909 18.9382 15.3323C18.449 14.6737 18.1575 13.8895 18.0977 13.0713C18.0379 12.2531 18.2123 11.4348 18.6006 10.712C18.9888 9.98934 19.5748 9.39212 20.29 8.99024C19.8529 8.40224 19.2906 7.91869 18.6439 7.57454C17.9971 7.23039 17.2819 7.03423 16.55 7.00024C15.7884 7.00881 15.0365 7.17212 14.34 7.48024C13.8644 7.6958 13.3517 7.81801 12.83 7.84024C12.2481 7.81057 11.676 7.67855 11.14 7.45024C10.4899 7.17635 9.79507 7.02384 9.09 7.00024C8.25811 7.04548 7.45006 7.29438 6.7369 7.72507C6.02373 8.15575 5.42729 8.75504 5 9.47024C3.58 11.6702 3.83 15.7902 6.121 19.3102C6.941 20.5702 8.041 21.9802 9.471 22.0002C9.96645 21.9966 10.4537 21.8731 10.891 21.6402C11.4947 21.3327 12.1635 21.1749 12.841 21.1802C13.5159 21.1698 14.1827 21.3279 14.781 21.6402C15.2075 21.8732 15.6851 21.9968 16.171 22.0002C17.621 21.9802 18.78 20.4202 19.6 19.1602Z" fill="#070607"/>
<path d="M16.3401 1.99976C16.3943 2.52517 16.3445 3.05612 16.1935 3.56228C16.0425 4.06845 15.7933 4.53991 15.4601 4.94976C15.1331 5.38242 14.712 5.73508 14.2287 5.98109C13.7453 6.22709 13.2124 6.35999 12.6701 6.36976C12.6106 5.85347 12.6599 5.33043 12.8149 4.83438C12.9699 4.33833 13.2272 3.88027 13.5701 3.48976C14.275 2.66467 15.2631 2.13316 16.3401 1.99976Z" fill="#070607"/>
</g>
</svg>
