<svg width="16" height="16" viewBox="0 0 16 16" fill="none" xmlns="http://www.w3.org/2000/svg">
<path d="M8.69991 10.8335H7.44659C6.55993 10.8335 5.83325 10.0868 5.83325 9.16682C5.83325 8.89349 6.05992 8.66682 6.33325 8.66682C6.60659 8.66682 6.83325 8.89349 6.83325 9.16682C6.83325 9.53349 7.10659 9.83349 7.44659 9.83349H8.69991C8.95991 9.83349 9.16659 9.60015 9.16659 9.31349C9.16659 8.95349 9.06659 8.90015 8.83993 8.82015L6.83325 8.12015C6.40659 7.96681 5.83325 7.66016 5.83325 6.68016C5.83325 5.84682 6.49326 5.16016 7.29993 5.16016H8.55324C9.43991 5.16016 10.1666 5.90682 10.1666 6.82682C10.1666 7.10016 9.93992 7.32682 9.66659 7.32682C9.39325 7.32682 9.16659 7.10016 9.16659 6.82682C9.16659 6.46016 8.89324 6.16016 8.55324 6.16016H7.29993C7.03993 6.16016 6.83325 6.39349 6.83325 6.68016C6.83325 7.04016 6.93325 7.09348 7.15991 7.17348L9.16659 7.87348C9.59325 8.02682 10.1666 8.33349 10.1666 9.31349C10.1666 10.1535 9.50658 10.8335 8.69991 10.8335Z" fill="black"/>
<path d="M8 11.5C7.72667 11.5 7.5 11.2733 7.5 11V5C7.5 4.72667 7.72667 4.5 8 4.5C8.27333 4.5 8.5 4.72667 8.5 5V11C8.5 11.2733 8.27333 11.5 8 11.5Z" fill="black"/>
<path d="M7.99992 15.1663C4.04659 15.1663 0.833252 11.953 0.833252 7.99967C0.833252 4.04634 4.04659 0.833008 7.99992 0.833008C8.27325 0.833008 8.49992 1.05967 8.49992 1.33301C8.49992 1.60634 8.27325 1.83301 7.99992 1.83301C4.59992 1.83301 1.83325 4.59967 1.83325 7.99967C1.83325 11.3997 4.59992 14.1663 7.99992 14.1663C11.3999 14.1663 14.1666 11.3997 14.1666 7.99967C14.1666 7.72634 14.3933 7.49967 14.6666 7.49967C14.9399 7.49967 15.1666 7.72634 15.1666 7.99967C15.1666 11.953 11.9533 15.1663 7.99992 15.1663Z" fill="black"/>
<path d="M14.6667 4.49967C14.3933 4.49967 14.1667 4.27301 14.1667 3.99967V1.83301H12C11.7267 1.83301 11.5 1.60634 11.5 1.33301C11.5 1.05967 11.7267 0.833008 12 0.833008H14.6667C14.94 0.833008 15.1667 1.05967 15.1667 1.33301V3.99967C15.1667 4.27301 14.94 4.49967 14.6667 4.49967Z" fill="black"/>
<path d="M11.3333 5.16663C11.2066 5.16663 11.08 5.11996 10.98 5.01996C10.7866 4.82663 10.7866 4.50663 10.98 4.31329L14.3133 0.979961C14.5066 0.786628 14.8266 0.786628 15.02 0.979961C15.2133 1.17329 15.2133 1.49329 15.02 1.68663L11.6866 5.01996C11.5866 5.11996 11.46 5.16663 11.3333 5.16663Z" fill="#292D32"/>
</svg>
