<svg width="25" height="25" viewBox="0 0 25 25" fill="none" xmlns="http://www.w3.org/2000/svg">
<path d="M12.5 23.25C6.57 23.25 1.75 18.43 1.75 12.5C1.75 6.57 6.57 1.75 12.5 1.75C18.43 1.75 23.25 6.57 23.25 12.5C23.25 18.43 18.43 23.25 12.5 23.25ZM12.5 3.25C7.4 3.25 3.25 7.4 3.25 12.5C3.25 17.6 7.4 21.75 12.5 21.75C17.6 21.75 21.75 17.6 21.75 12.5C21.75 7.4 17.6 3.25 12.5 3.25Z" fill="#9CA3AF"/>
<path d="M11 17.25C9.21 17.25 7.75 15.79 7.75 14C7.75 10.55 10.55 7.75 14 7.75C15.79 7.75 17.25 9.21 17.25 11C17.25 14.45 14.45 17.25 11 17.25ZM14 9.25C11.38 9.25 9.25 11.38 9.25 14C9.25 14.96 10.04 15.75 11 15.75C13.62 15.75 15.75 13.62 15.75 11C15.75 10.04 14.96 9.25 14 9.25Z" fill="#9CA3AF"/>
</svg>
