<svg width="14" height="15" viewBox="0 0 14 15" fill="none" xmlns="http://www.w3.org/2000/svg">
<path d="M2.32686 9.05208L1.4402 8.16541C1.07853 7.80374 1.07853 7.20873 1.4402 6.84707L2.32686 5.96039C2.47852 5.80872 2.60102 5.51122 2.60102 5.30122V4.04704C2.60102 3.5337 3.02103 3.11372 3.53436 3.11372H4.78852C4.99852 3.11372 5.29603 2.99124 5.44769 2.83957L6.33435 1.95289C6.69602 1.59122 7.29103 1.59122 7.65269 1.95289L8.53937 2.83957C8.69104 2.99124 8.98852 3.11372 9.19852 3.11372H10.4527C10.966 3.11372 11.386 3.5337 11.386 4.04704V5.30122C11.386 5.51122 11.5085 5.80872 11.6602 5.96039L12.5469 6.84707C12.9085 7.20873 12.9085 7.80374 12.5469 8.16541L11.6602 9.05208C11.5085 9.20375 11.386 9.50125 11.386 9.71125V10.9654C11.386 11.4787 10.966 11.8988 10.4527 11.8988H9.19852C8.98852 11.8988 8.69104 12.0212 8.53937 12.1729L7.65269 13.0596C7.29103 13.4212 6.69602 13.4212 6.33435 13.0596L5.44769 12.1729C5.29603 12.0212 4.99852 11.8988 4.78852 11.8988H3.53436C3.02103 11.8988 2.60102 11.4787 2.60102 10.9654V9.71125C2.60102 9.49542 2.47852 9.19792 2.32686 9.05208Z" stroke="#6B7280" stroke-width="0.875" stroke-linecap="round" stroke-linejoin="round"/>
<path d="M5.25 9.25L8.75 5.75" stroke="#6B7280" stroke-width="0.875" stroke-linecap="round" stroke-linejoin="round"/>
<path d="M8.45509 8.95817H8.46033" stroke="#6B7280" stroke-width="1.16667" stroke-linecap="round" stroke-linejoin="round"/>
<path d="M5.53846 6.04167H5.5437" stroke="#292D32" stroke-width="1.16667" stroke-linecap="round" stroke-linejoin="round"/>
</svg>
