<svg width="24" height="25" viewBox="0 0 24 25" fill="none" xmlns="http://www.w3.org/2000/svg">
<path d="M19.97 10.5H3.97V18.5C3.97 21.5 4.97 22.5 7.97 22.5H15.97C18.97 22.5 19.97 21.5 19.97 18.5V10.5Z" stroke="#374151" stroke-width="1.5" stroke-miterlimit="10" stroke-linecap="round" stroke-linejoin="round"/>
<path d="M21.5 7.5V8.5C21.5 9.6 20.97 10.5 19.5 10.5H4.5C2.97 10.5 2.5 9.6 2.5 8.5V7.5C2.5 6.4 2.97 5.5 4.5 5.5H19.5C20.97 5.5 21.5 6.4 21.5 7.5Z" stroke="#374151" stroke-width="1.5" stroke-miterlimit="10" stroke-linecap="round" stroke-linejoin="round"/>
<path d="M11.64 5.50043H6.12C5.78 5.13043 5.79 4.56043 6.15 4.20043L7.57 2.78043C7.94 2.41043 8.55 2.41043 8.92 2.78043L11.64 5.50043Z" stroke="#374151" stroke-width="1.5" stroke-miterlimit="10" stroke-linecap="round" stroke-linejoin="round"/>
<path d="M17.87 5.50043H12.35L15.07 2.78043C15.44 2.41043 16.05 2.41043 16.42 2.78043L17.84 4.20043C18.2 4.56043 18.21 5.13043 17.87 5.50043Z" stroke="#374151" stroke-width="1.5" stroke-miterlimit="10" stroke-linecap="round" stroke-linejoin="round"/>
<path d="M8.94 10.5V15.64C8.94 16.44 9.82 16.91 10.49 16.48L11.43 15.86C11.77 15.64 12.2 15.64 12.53 15.86L13.42 16.46C14.08 16.9 14.97 16.43 14.97 15.63V10.5H8.94Z" stroke="#374151" stroke-width="1.5" stroke-miterlimit="10" stroke-linecap="round" stroke-linejoin="round"/>
</svg>
