<svg width="25" height="24" viewBox="0 0 25 24" fill="none" xmlns="http://www.w3.org/2000/svg">
<path d="M12.5 18.75C12.09 18.75 11.75 18.41 11.75 18V15C11.75 14.59 12.09 14.25 12.5 14.25C12.91 14.25 13.25 14.59 13.25 15V18C13.25 18.41 12.91 18.75 12.5 18.75Z" fill="#9CA3AF"/>
<path d="M18.1 22.5598H6.89996C5.07996 22.5598 3.41996 21.1598 3.11996 19.3698L1.78996 11.3998C1.56996 10.1598 2.17996 8.56982 3.16996 7.77982L10.1 2.22982C11.44 1.14982 13.55 1.15982 14.9 2.23982L21.83 7.77982C22.81 8.56982 23.41 10.1598 23.21 11.3998L21.88 19.3598C21.58 21.1298 19.88 22.5598 18.1 22.5598ZM12.49 2.92982C11.96 2.92982 11.43 3.08982 11.04 3.39982L4.10996 8.95982C3.54996 9.40982 3.14996 10.4498 3.26996 11.1598L4.59996 19.1198C4.77996 20.1698 5.82996 21.0598 6.89996 21.0598H18.1C19.17 21.0598 20.22 20.1698 20.4 19.1098L21.73 11.1498C21.84 10.4498 21.44 9.38982 20.89 8.94982L13.96 3.40982C13.56 3.08982 13.02 2.92982 12.49 2.92982Z" fill="#9CA3AF"/>
</svg>
