<svg width="25" height="25" viewBox="0 0 25 25" fill="none" xmlns="http://www.w3.org/2000/svg">
<path d="M21.3299 8.51002L14.7799 3.27002C13.4999 2.25002 11.4999 2.24002 10.2299 3.26002L3.67996 8.51002C2.73996 9.26002 2.16996 10.76 2.36996 11.94L3.62996 19.48C3.91996 21.17 5.48996 22.5 7.19996 22.5H17.7999C19.4899 22.5 21.0899 21.14 21.3799 19.47L22.6399 11.93C22.8199 10.76 22.2499 9.26002 21.3299 8.51002ZM13.2499 18.5C13.2499 18.91 12.9099 19.25 12.4999 19.25C12.0899 19.25 11.7499 18.91 11.7499 18.5V15.5C11.7499 15.09 12.0899 14.75 12.4999 14.75C12.9099 14.75 13.2499 15.09 13.2499 15.5V18.5Z" fill="#2103ED"/>
</svg>
