<svg width="32" height="32" viewBox="0 0 32 32" fill="none" xmlns="http://www.w3.org/2000/svg">
<g clip-path="url(#clip0_4350_11440)">
<path d="M13.0292 20.8758L11.1242 18.9697L5.64744 24.4454L2.62731 21.4242L0.721222 23.3292L3.74135 26.3504L3.73383 26.359L5.6367 28.2662L5.64636 28.2565L5.64744 28.2576L13.0292 20.8758Z" fill="#2103ED"/>
<path d="M17.3469 0H14.652V10.4524H17.3469V0Z" fill="#2103ED"/>
<path d="M5.63787 3.73197L3.73227 5.63757L11.124 13.0293L13.0296 11.1237L5.63787 3.73197Z" fill="#2103ED"/>
<path d="M14.652 29.2986H10.3794V31.9936H14.652V32H17.3469V31.9936V21.5455H14.652V29.2986Z" fill="#2103ED"/>
<path d="M20.8731 18.9686L18.9675 20.8742L26.3592 28.2659L28.2648 26.3603L20.8731 18.9686Z" fill="#2103ED"/>
<path d="M26.3599 3.73156L18.9682 11.1233L20.8738 13.0289L28.2655 5.63716L26.3599 3.73156Z" fill="#2103ED"/>
<path d="M10.4524 14.652H0V17.3469H10.4524V14.652Z" fill="#2103ED"/>
<path d="M32 14.652H21.5476V17.3469H32V14.652Z" fill="#2103ED"/>
</g>
<defs>
<clipPath id="clip0_4350_11440">
<rect width="32" height="32" fill="white"/>
</clipPath>
</defs>
</svg>
