<svg width="20" height="20" viewBox="0 0 20 20" fill="none" xmlns="http://www.w3.org/2000/svg">
<path d="M16.0833 6.60023V10.8919C16.0833 13.4586 14.6167 14.5586 12.4167 14.5586H5.09165C4.71665 14.5586 4.35832 14.5253 4.02498 14.4503C3.81665 14.4169 3.61666 14.3586 3.43332 14.2919C2.18332 13.8253 1.42499 12.7419 1.42499 10.8919V6.60023C1.42499 4.03356 2.89165 2.93359 5.09165 2.93359H12.4167C14.2833 2.93359 15.625 3.72526 15.9833 5.53359C16.0417 5.86692 16.0833 6.20856 16.0833 6.60023Z" stroke="#2103ED" stroke-width="1.5" stroke-miterlimit="10" stroke-linecap="round" stroke-linejoin="round"/>
<path d="M18.5842 9.10033V13.392C18.5842 15.9587 17.1176 17.0587 14.9176 17.0587H7.59254C6.97588 17.0587 6.41755 16.9754 5.93422 16.792C4.94255 16.4254 4.26755 15.667 4.02588 14.4504C4.35921 14.5254 4.71754 14.5587 5.09254 14.5587H12.4176C14.6176 14.5587 16.0842 13.4587 16.0842 10.892V6.60033C16.0842 6.20866 16.0509 5.85869 15.9842 5.53369C17.5676 5.86702 18.5842 6.98366 18.5842 9.10033Z" stroke="#2103ED" stroke-width="1.5" stroke-miterlimit="10" stroke-linecap="round" stroke-linejoin="round"/>
<path d="M8.74872 10.9503C9.96374 10.9503 10.9487 9.96533 10.9487 8.7503C10.9487 7.53528 9.96374 6.55029 8.74872 6.55029C7.53369 6.55029 6.54871 7.53528 6.54871 8.7503C6.54871 9.96533 7.53369 10.9503 8.74872 10.9503Z" stroke="#2103ED" stroke-width="1.5" stroke-miterlimit="10" stroke-linecap="round" stroke-linejoin="round"/>
<path d="M3.98334 6.91699V10.5837" stroke="#2103ED" stroke-width="1.5" stroke-miterlimit="10" stroke-linecap="round" stroke-linejoin="round"/>
<path d="M13.5181 6.91699V10.5837" stroke="#2103ED" stroke-width="1.5" stroke-miterlimit="10" stroke-linecap="round" stroke-linejoin="round"/>
</svg>
