<svg width="40" height="40" viewBox="0 0 40 40" fill="none" xmlns="http://www.w3.org/2000/svg">
<g clip-path="url(#clip0_4717_10627)">
<path d="M29.1542 23.4572C29.2 23.4308 29.2449 23.403 29.2902 23.3759C28.5324 18.2371 25.8439 13.5805 21.7725 10.3548C21.7262 10.3804 21.6798 10.4055 21.634 10.4319L12.6041 15.6453C9.70987 17.3163 7.22978 19.6184 5.34837 22.3805L10.6636 31.5867C13.9963 31.3384 17.2301 30.3416 20.1243 28.6706L29.1542 23.4572Z" fill="url(#paint0_linear_4717_10627)"/>
<path d="M29.2902 23.376C28.778 19.9027 27.3827 16.6504 25.2757 13.9107L6.66262 24.6569L10.6636 31.5868C13.9963 31.3385 17.2301 30.3417 20.1243 28.6708L29.1542 23.4573C29.1999 23.431 29.2449 23.4032 29.2902 23.376Z" fill="url(#paint1_linear_4717_10627)"/>
<path d="M27.6057 17.7501L21.0751 16.0003L17.3132 30.0398C18.2812 29.6501 19.2206 29.1926 20.1244 28.6708L27.5469 24.3854L28.6171 20.3913C28.3415 19.4886 28.0035 18.6061 27.6057 17.7501Z" fill="url(#paint2_linear_4717_10627)"/>
<path d="M11.9294 16.0513C9.32121 17.6827 7.08015 19.8378 5.34808 22.3803L10.6633 31.5866C13.7312 31.3578 16.7181 30.4945 19.4351 29.0515L11.9294 16.0513Z" fill="url(#paint3_linear_4717_10627)"/>
<path d="M14.2461 16.9544L11.6177 16.2501C9.14157 17.8569 7.01031 19.9409 5.34838 22.3805L10.4326 31.1865L14.2461 16.9544Z" fill="url(#paint4_linear_4717_10627)"/>
<path d="M10.6575 30.8942L5.94582 22.7332C5.87158 22.6046 5.75551 22.5053 5.61695 22.4519L5.24941 22.3103C4.91991 22.1833 4.56618 22.1317 4.21413 22.1591C3.86208 22.1866 3.52064 22.2925 3.21483 22.4691L2.32089 22.9852C2.17173 23.0713 2.06289 23.2131 2.01831 23.3795C1.97374 23.5459 1.99707 23.7231 2.08319 23.8723L7.73975 33.6697C7.82587 33.8189 7.96771 33.9277 8.13408 33.9723C8.30044 34.0169 8.4777 33.9935 8.62686 33.9074L9.5208 33.3913C9.8266 33.2147 10.089 32.972 10.2888 32.6809C10.4887 32.3897 10.6208 32.0575 10.6756 31.7087L10.7367 31.3196C10.7597 31.1729 10.7318 31.0228 10.6575 30.8942Z" fill="url(#paint5_linear_4717_10627)"/>
<path d="M2.83163 25.1686L2.3407 24.3183L3.5291 23.6322C3.64185 23.5671 3.77584 23.5494 3.9016 23.5831C4.02735 23.6168 4.13457 23.6991 4.19967 23.8118C4.26476 23.9246 4.2824 24.0586 4.24871 24.1843C4.21501 24.3101 4.13274 24.4173 4.01999 24.4824L2.83163 25.1686Z" fill="url(#paint6_linear_4717_10627)"/>
<path d="M3.76125 26.7784L3.27033 25.9281L4.45873 25.242C4.57148 25.1769 4.70547 25.1593 4.83122 25.193C4.95698 25.2267 5.0642 25.309 5.12929 25.4217C5.19439 25.5345 5.21203 25.6684 5.17833 25.7942C5.14464 25.92 5.06237 26.0272 4.94962 26.0923L3.76125 26.7784Z" fill="url(#paint7_linear_4717_10627)"/>
<path d="M4.69167 28.3903L4.20075 27.54L5.38915 26.8538C5.5019 26.7887 5.63589 26.7711 5.76164 26.8048C5.8874 26.8385 5.99462 26.9208 6.05971 27.0335C6.12481 27.1463 6.14245 27.2803 6.10875 27.406C6.07506 27.5318 5.99279 27.639 5.88004 27.7041L4.69164 28.3902L4.69167 28.3903Z" fill="url(#paint8_linear_4717_10627)"/>
<path d="M5.6216 30.0006L5.13068 29.1503L6.31908 28.4642C6.43183 28.3991 6.56582 28.3815 6.69157 28.4152C6.81733 28.4488 6.92455 28.5311 6.98965 28.6439C7.05474 28.7566 7.07238 28.8906 7.03869 29.0164C7.00499 29.1421 6.92272 29.2493 6.80997 29.3144L5.6216 30.0006Z" fill="url(#paint9_linear_4717_10627)"/>
<path d="M6.55178 31.6119L6.06086 30.7616L7.24926 30.0755C7.36201 30.0104 7.496 29.9928 7.62175 30.0265C7.74751 30.0602 7.85473 30.1425 7.91982 30.2552C7.98492 30.3679 8.00256 30.5019 7.96886 30.6277C7.93516 30.7534 7.85289 30.8607 7.74014 30.9258L6.55175 31.6119L6.55178 31.6119Z" fill="url(#paint10_linear_4717_10627)"/>
<path d="M7.48165 33.2223L6.99073 32.372L8.17913 31.6859C8.29188 31.6208 8.42587 31.6031 8.55162 31.6368C8.67738 31.6705 8.7846 31.7528 8.84969 31.8656C8.91479 31.9783 8.93243 32.1123 8.89873 32.238C8.86504 32.3638 8.78276 32.471 8.67001 32.5361L7.48162 33.2222L7.48165 33.2223Z" fill="url(#paint11_linear_4717_10627)"/>
<path d="M3.24579 22.4512L2.32089 22.9852C2.17173 23.0713 2.06289 23.2131 2.01832 23.3795C1.97374 23.5459 1.99708 23.7231 2.08319 23.8723L7.73975 33.6697C7.82587 33.8189 7.96771 33.9277 8.13408 33.9723C8.30044 34.0169 8.47771 33.9935 8.62687 33.9074L9.55176 33.3734L3.24579 22.4512Z" fill="url(#paint12_linear_4717_10627)"/>
<path d="M10.6756 31.7084L10.7366 31.3193C10.7597 31.1726 10.7317 31.0224 10.6575 30.8939L8.66364 27.4404L5.27344 29.3978L7.7397 33.6695C7.82582 33.8186 7.96766 33.9275 8.13403 33.972C8.3004 34.0166 8.47766 33.9933 8.62682 33.9072L9.52075 33.391C9.82658 33.2145 10.089 32.9718 10.2888 32.6806C10.4887 32.3895 10.6208 32.0573 10.6756 31.7084Z" fill="url(#paint13_linear_4717_10627)"/>
<path d="M29.2899 23.3753C31.8247 21.8517 33.6213 19.073 34.64 15.0958L35.3607 12.2818C35.5432 11.5694 35.1231 10.8416 34.4148 10.6435L31.6176 9.86066C27.6638 8.75431 24.3592 8.92073 21.7723 10.3542C25.2073 14.0874 27.7745 18.5338 29.2899 23.3753Z" fill="url(#paint14_linear_4717_10627)"/>
<path d="M34.6406 15.0968L35.3614 12.283C35.5439 11.5705 35.1237 10.8428 34.4155 10.6446L32.6047 10.1379L25.0401 14.5053C26.8693 17.236 28.3034 20.2223 29.2906 23.3764C31.8254 21.8528 33.6219 19.0741 34.6406 15.0968Z" fill="url(#paint15_linear_4717_10627)"/>
<path d="M26.8583 17.5496C27.4529 18.6716 27.985 19.8257 28.452 21.0066L29.2095 18.1796L26.8583 17.5496Z" fill="url(#paint16_linear_4717_10627)"/>
<path d="M21.496 19.1958C22.6588 21.2098 25.234 21.8999 27.248 20.7371C29.262 19.5743 29.9521 16.999 28.7893 14.985C27.6265 12.971 25.0512 12.281 23.0372 13.4438C21.0233 14.6066 20.3332 17.1818 21.496 19.1958Z" fill="url(#paint17_linear_4717_10627)"/>
<path d="M22.2024 18.787C23.1398 20.4106 25.2159 20.9669 26.8395 20.0295C28.4631 19.0921 29.0194 17.016 28.082 15.3924C27.1446 13.7688 25.0685 13.2125 23.4449 14.1499C21.8213 15.0873 21.265 17.1634 22.2024 18.787Z" fill="url(#paint18_linear_4717_10627)"/>
<path d="M23.0372 13.4437C21.0232 14.6064 20.3332 17.1817 21.4959 19.1957C22.6587 21.2097 25.234 21.8997 27.248 20.737C27.6717 20.4928 28.0496 20.1766 28.3646 19.8026L24.4047 12.9438C23.9232 13.0296 23.4605 13.1988 23.0372 13.4437Z" fill="url(#paint19_linear_4717_10627)"/>
<path d="M21.075 16.0003C20.4731 18.2466 21.8061 20.5555 24.0525 21.1575C26.2988 21.7594 28.6077 20.4263 29.2096 18.18C29.3367 17.7077 29.3803 17.217 29.3385 16.7297L21.6886 14.6799C21.4088 15.081 21.2011 15.5278 21.075 16.0003Z" fill="url(#paint20_linear_4717_10627)"/>
<path d="M22.657 18.5248C23.4494 19.8973 25.2045 20.3676 26.577 19.5751C27.9496 18.7827 28.4198 17.0276 27.6274 15.6551C26.835 14.2826 25.0799 13.8123 23.7074 14.6047C22.3348 15.3972 21.8646 17.1522 22.657 18.5248Z" fill="url(#paint21_linear_4717_10627)"/>
<path d="M26.577 19.5751C27.9495 18.7827 28.4198 17.0276 27.6274 15.6551C26.835 14.2826 25.0799 13.8123 23.7074 14.6047C23.4101 14.7764 23.1554 14.9933 22.9464 15.2415L25.6451 19.9157C25.9732 19.8573 26.2886 19.742 26.577 19.5751Z" fill="url(#paint22_linear_4717_10627)"/>
<path d="M27.9143 17.8331C28.3245 16.3023 27.416 14.7288 25.8852 14.3186C24.3543 13.9084 22.7808 14.8168 22.3706 16.3477C22.284 16.6695 22.2543 17.004 22.2828 17.3361L27.4962 18.733C27.6869 18.4596 27.8283 18.1551 27.9143 17.8331Z" fill="url(#paint23_linear_4717_10627)"/>
<path d="M15.982 34.6243L11.0345 37.4807C10.511 37.7829 9.88303 37.3014 10.0391 36.7169L11.7093 30.4853C11.7557 30.313 11.8461 30.1557 11.9717 30.029C12.0972 29.9022 12.2536 29.8103 12.4254 29.7623C13.168 29.5532 13.9018 29.314 14.6251 29.0454C16.1643 28.4731 17.6721 27.7642 19.1188 26.9289L19.644 26.6256C19.8406 26.5121 20.0763 26.693 20.0176 26.9122L19.0078 30.6808C18.7871 31.5046 18.4063 32.2769 17.8871 32.9535C17.3679 33.6301 16.7206 34.1978 15.982 34.6243Z" fill="url(#paint24_linear_4717_10627)"/>
<path d="M15.982 34.6243L11.0345 37.4807C10.511 37.7829 9.88303 37.3014 10.0391 36.7169L11.7093 30.4853C11.7557 30.313 11.8461 30.1557 11.9717 30.029C12.0972 29.9022 12.2536 29.8103 12.4254 29.7623C13.168 29.5532 13.9018 29.314 14.6251 29.0454C16.1643 28.4731 17.6721 27.7642 19.1188 26.9289L19.644 26.6256C19.8406 26.5121 20.0763 26.693 20.0176 26.9122L19.0078 30.6808C18.7871 31.5046 18.4063 32.2769 17.8871 32.9535C17.3679 33.6301 16.7206 34.1978 15.982 34.6243Z" fill="url(#paint25_linear_4717_10627)"/>
<path d="M14.625 29.0456C13.9018 29.3143 13.168 29.5534 12.4254 29.7625C12.2535 29.8105 12.0971 29.9024 11.9716 30.0291C11.846 30.1559 11.7556 30.3132 11.7093 30.4855L10.039 36.7171C9.883 37.3015 10.5109 37.7831 11.0344 37.4808L15.9819 34.6244C17.0458 34.0102 17.9029 33.1115 18.4697 32.0435L16.3357 28.3473C15.7729 28.5979 15.2024 28.8308 14.625 29.0456Z" fill="url(#paint26_linear_4717_10627)"/>
<path d="M5.37742 16.2565L0.429942 19.1129C-0.0935706 19.4152 0.00950969 20.1998 0.5937 20.3569L6.82557 22.0262C6.99796 22.0722 7.17935 22.0725 7.3519 22.0272C7.52446 21.9818 7.68225 21.8924 7.80975 21.7676C8.36214 21.229 8.93616 20.7131 9.53039 20.2211C10.7957 19.1742 12.1635 18.2229 13.6102 17.3876L14.1355 17.0844C14.3321 16.9709 14.2933 16.6763 14.074 16.6176L10.3055 15.6078C9.48169 15.387 8.62248 15.3307 7.77692 15.442C6.93137 15.5533 6.11601 15.8301 5.37742 16.2565Z" fill="url(#paint27_linear_4717_10627)"/>
<path d="M5.37742 16.2565L0.429942 19.1129C-0.0935706 19.4152 0.00950969 20.1998 0.5937 20.3569L6.82557 22.0262C6.99796 22.0722 7.17935 22.0725 7.3519 22.0272C7.52446 21.9818 7.68225 21.8924 7.80975 21.7676C8.36214 21.229 8.93616 20.7131 9.53039 20.2211C10.7957 19.1742 12.1635 18.2229 13.6102 17.3876L14.1355 17.0844C14.3321 16.9709 14.2933 16.6763 14.074 16.6176L10.3055 15.6078C9.48169 15.387 8.62248 15.3307 7.77692 15.442C6.93137 15.5533 6.11601 15.8301 5.37742 16.2565Z" fill="url(#paint28_linear_4717_10627)"/>
<path d="M5.37738 16.2568L0.429907 19.1132C-0.0936062 19.4155 0.00947414 20.2001 0.593665 20.3572L6.82554 22.0265C6.99792 22.0725 7.17931 22.0728 7.35187 22.0275C7.52442 21.9821 7.68221 21.8927 7.80971 21.7679C8.36211 21.2293 8.93613 20.7134 9.53036 20.2214C9.9039 19.913 10.285 19.6139 10.6734 19.3244L8.40226 15.3907C7.33822 15.4271 6.29943 15.7245 5.37738 16.2568Z" fill="url(#paint29_linear_4717_10627)"/>
</g>
<defs>
<linearGradient id="paint0_linear_4717_10627" x1="15.4487" y1="18.2036" x2="18.9693" y2="24.3014" gradientUnits="userSpaceOnUse">
<stop stop-color="#F5FBFF"/>
<stop offset="1" stop-color="#DBD5EF"/>
</linearGradient>
<linearGradient id="paint1_linear_4717_10627" x1="17.465" y1="21.697" x2="21.1088" y2="28.0083" gradientUnits="userSpaceOnUse">
<stop stop-color="#DBD5EF" stop-opacity="0"/>
<stop offset="0.285" stop-color="#D9D2EE" stop-opacity="0.285"/>
<stop offset="0.474" stop-color="#D4C9E9" stop-opacity="0.474"/>
<stop offset="0.635" stop-color="#CBBAE2" stop-opacity="0.635"/>
<stop offset="0.779" stop-color="#BFA5D7" stop-opacity="0.78"/>
<stop offset="0.913" stop-color="#AF8ACA" stop-opacity="0.913"/>
<stop offset="1" stop-color="#A274BF"/>
</linearGradient>
<linearGradient id="paint2_linear_4717_10627" x1="21.0948" y1="27.6327" x2="24.9781" y2="18.6497" gradientUnits="userSpaceOnUse">
<stop stop-color="#DBD5EF" stop-opacity="0"/>
<stop offset="0.285" stop-color="#D9D2EE" stop-opacity="0.285"/>
<stop offset="0.474" stop-color="#D4C9E9" stop-opacity="0.474"/>
<stop offset="0.635" stop-color="#CBBAE2" stop-opacity="0.635"/>
<stop offset="0.779" stop-color="#BFA5D7" stop-opacity="0.78"/>
<stop offset="0.913" stop-color="#AF8ACA" stop-opacity="0.913"/>
<stop offset="1" stop-color="#A274BF"/>
</linearGradient>
<linearGradient id="paint3_linear_4717_10627" x1="12.5569" y1="24.3558" x2="7.72073" y2="27.148" gradientUnits="userSpaceOnUse">
<stop stop-color="#DBD5EF" stop-opacity="0"/>
<stop offset="0.285" stop-color="#D9D2EE" stop-opacity="0.285"/>
<stop offset="0.474" stop-color="#D4C9E9" stop-opacity="0.474"/>
<stop offset="0.635" stop-color="#CBBAE2" stop-opacity="0.635"/>
<stop offset="0.779" stop-color="#BFA5D7" stop-opacity="0.78"/>
<stop offset="0.913" stop-color="#AF8ACA" stop-opacity="0.913"/>
<stop offset="1" stop-color="#A274BF"/>
</linearGradient>
<linearGradient id="paint4_linear_4717_10627" x1="11.3723" y1="22.3956" x2="9.69175" y2="19.4848" gradientUnits="userSpaceOnUse">
<stop stop-color="#DBD5EF" stop-opacity="0"/>
<stop offset="0.285" stop-color="#D9D2EE" stop-opacity="0.285"/>
<stop offset="0.474" stop-color="#D4C9E9" stop-opacity="0.474"/>
<stop offset="0.635" stop-color="#CBBAE2" stop-opacity="0.635"/>
<stop offset="0.779" stop-color="#BFA5D7" stop-opacity="0.78"/>
<stop offset="0.913" stop-color="#AF8ACA" stop-opacity="0.913"/>
<stop offset="1" stop-color="#A274BF"/>
</linearGradient>
<linearGradient id="paint5_linear_4717_10627" x1="8.07536" y1="26.9444" x2="7.21174" y2="27.443" gradientUnits="userSpaceOnUse">
<stop stop-color="#FEF0AE"/>
<stop offset="1" stop-color="#FAC600"/>
</linearGradient>
<linearGradient id="paint6_linear_4717_10627" x1="3.64505" y1="24.7143" x2="3.13317" y2="23.8277" gradientUnits="userSpaceOnUse">
<stop stop-color="#FEF0AE"/>
<stop offset="1" stop-color="#FAC600"/>
</linearGradient>
<linearGradient id="paint7_linear_4717_10627" x1="4.57467" y1="26.3241" x2="4.06276" y2="25.4375" gradientUnits="userSpaceOnUse">
<stop stop-color="#FEF0AE"/>
<stop offset="1" stop-color="#FAC600"/>
</linearGradient>
<linearGradient id="paint8_linear_4717_10627" x1="5.50509" y1="27.936" x2="4.99322" y2="27.0494" gradientUnits="userSpaceOnUse">
<stop stop-color="#FEF0AE"/>
<stop offset="1" stop-color="#FAC600"/>
</linearGradient>
<linearGradient id="paint9_linear_4717_10627" x1="6.43502" y1="29.5463" x2="5.92312" y2="28.6597" gradientUnits="userSpaceOnUse">
<stop stop-color="#FEF0AE"/>
<stop offset="1" stop-color="#FAC600"/>
</linearGradient>
<linearGradient id="paint10_linear_4717_10627" x1="7.3652" y1="31.1576" x2="6.85333" y2="30.271" gradientUnits="userSpaceOnUse">
<stop stop-color="#FEF0AE"/>
<stop offset="1" stop-color="#FAC600"/>
</linearGradient>
<linearGradient id="paint11_linear_4717_10627" x1="8.29511" y1="32.768" x2="7.7832" y2="31.8814" gradientUnits="userSpaceOnUse">
<stop stop-color="#FEF0AE"/>
<stop offset="1" stop-color="#FAC600"/>
</linearGradient>
<linearGradient id="paint12_linear_4717_10627" x1="6.00631" y1="28.1389" x2="4.91773" y2="28.7673" gradientUnits="userSpaceOnUse">
<stop stop-color="#FE9738" stop-opacity="0"/>
<stop offset="1" stop-color="#FE9738"/>
</linearGradient>
<linearGradient id="paint13_linear_4717_10627" x1="7.80419" y1="29.8665" x2="9.77349" y2="33.2774" gradientUnits="userSpaceOnUse">
<stop stop-color="#FE9738" stop-opacity="0"/>
<stop offset="1" stop-color="#FE9738"/>
</linearGradient>
<linearGradient id="paint14_linear_4717_10627" x1="28.5414" y1="10.8889" x2="32.2047" y2="17.2338" gradientUnits="userSpaceOnUse">
<stop stop-color="#FFA1AE"/>
<stop offset="1" stop-color="#FF4565"/>
</linearGradient>
<linearGradient id="paint15_linear_4717_10627" x1="29.2369" y1="14.0018" x2="33.3845" y2="18.5319" gradientUnits="userSpaceOnUse">
<stop stop-color="#FE0364" stop-opacity="0"/>
<stop offset="0.234" stop-color="#F90362" stop-opacity="0.234"/>
<stop offset="0.517" stop-color="#EA035B" stop-opacity="0.517"/>
<stop offset="0.824" stop-color="#D20250" stop-opacity="0.824"/>
<stop offset="1" stop-color="#C00148"/>
</linearGradient>
<linearGradient id="paint16_linear_4717_10627" x1="29.9637" y1="23.4674" x2="28.4231" y2="18.9947" gradientUnits="userSpaceOnUse">
<stop stop-color="#FE0364" stop-opacity="0"/>
<stop offset="0.234" stop-color="#F90362" stop-opacity="0.234"/>
<stop offset="0.517" stop-color="#EA035B" stop-opacity="0.517"/>
<stop offset="0.824" stop-color="#D20250" stop-opacity="0.824"/>
<stop offset="1" stop-color="#C00148"/>
</linearGradient>
<linearGradient id="paint17_linear_4717_10627" x1="26.0854" y1="13.5719" x2="24.3847" y2="19.9191" gradientUnits="userSpaceOnUse">
<stop stop-color="#B3DAFE"/>
<stop offset="1" stop-color="#0182FC"/>
</linearGradient>
<linearGradient id="paint18_linear_4717_10627" x1="24.2725" y1="20.3352" x2="26.1442" y2="13.3502" gradientUnits="userSpaceOnUse">
<stop stop-color="#B3DAFE"/>
<stop offset="1" stop-color="#0182FC"/>
</linearGradient>
<linearGradient id="paint19_linear_4717_10627" x1="25.0964" y1="17.117" x2="20.8066" y2="19.5937" gradientUnits="userSpaceOnUse">
<stop stop-color="#314DC9" stop-opacity="0"/>
<stop offset="0.276" stop-color="#304BC4" stop-opacity="0.276"/>
<stop offset="0.563" stop-color="#2B45B8" stop-opacity="0.563"/>
<stop offset="0.854" stop-color="#243BA3" stop-opacity="0.854"/>
<stop offset="1" stop-color="#1F3596"/>
</linearGradient>
<linearGradient id="paint20_linear_4717_10627" x1="25.1241" y1="17.1876" x2="23.7746" y2="22.224" gradientUnits="userSpaceOnUse">
<stop stop-color="#314DC9" stop-opacity="0"/>
<stop offset="0.276" stop-color="#304BC4" stop-opacity="0.276"/>
<stop offset="0.563" stop-color="#2B45B8" stop-opacity="0.563"/>
<stop offset="0.854" stop-color="#243BA3" stop-opacity="0.854"/>
<stop offset="1" stop-color="#1F3596"/>
</linearGradient>
<linearGradient id="paint21_linear_4717_10627" x1="24.4997" y1="19.4878" x2="25.6587" y2="15.1622" gradientUnits="userSpaceOnUse">
<stop stop-color="#5A5A5A"/>
<stop offset="1" stop-color="#444444"/>
</linearGradient>
<linearGradient id="paint22_linear_4717_10627" x1="25.8102" y1="16.3251" x2="27.2186" y2="14.7125" gradientUnits="userSpaceOnUse">
<stop stop-color="#433F43" stop-opacity="0"/>
<stop offset="1" stop-color="#1A1A1A"/>
</linearGradient>
<linearGradient id="paint23_linear_4717_10627" x1="25.0237" y1="15.5316" x2="24.9156" y2="14.1134" gradientUnits="userSpaceOnUse">
<stop stop-color="#433F43" stop-opacity="0"/>
<stop offset="1" stop-color="#1A1A1A"/>
</linearGradient>
<linearGradient id="paint24_linear_4717_10627" x1="15.6851" y1="28.2197" x2="14.3066" y2="35.7565" gradientUnits="userSpaceOnUse">
<stop stop-color="#FFA1AE"/>
<stop offset="1" stop-color="#FF4565"/>
</linearGradient>
<linearGradient id="paint25_linear_4717_10627" x1="14.9796" y1="31.8551" x2="16.4002" y2="34.3157" gradientUnits="userSpaceOnUse">
<stop stop-color="#FE0364" stop-opacity="0"/>
<stop offset="0.234" stop-color="#F90362" stop-opacity="0.234"/>
<stop offset="0.517" stop-color="#EA035B" stop-opacity="0.517"/>
<stop offset="0.824" stop-color="#D20250" stop-opacity="0.824"/>
<stop offset="1" stop-color="#C00148"/>
</linearGradient>
<linearGradient id="paint26_linear_4717_10627" x1="12.781" y1="32.8101" x2="10.8218" y2="32.3887" gradientUnits="userSpaceOnUse">
<stop stop-color="#FE0364" stop-opacity="0"/>
<stop offset="0.234" stop-color="#F90362" stop-opacity="0.234"/>
<stop offset="0.517" stop-color="#EA035B" stop-opacity="0.517"/>
<stop offset="0.824" stop-color="#D20250" stop-opacity="0.824"/>
<stop offset="1" stop-color="#C00148"/>
</linearGradient>
<linearGradient id="paint27_linear_4717_10627" x1="7.43389" y1="15.9802" x2="6.74159" y2="22.1404" gradientUnits="userSpaceOnUse">
<stop stop-color="#FFA1AE"/>
<stop offset="1" stop-color="#FF4565"/>
</linearGradient>
<linearGradient id="paint28_linear_4717_10627" x1="7.78454" y1="19.0856" x2="9.49192" y2="21.1231" gradientUnits="userSpaceOnUse">
<stop stop-color="#FE0364" stop-opacity="0"/>
<stop offset="0.234" stop-color="#F90362" stop-opacity="0.234"/>
<stop offset="0.517" stop-color="#EA035B" stop-opacity="0.517"/>
<stop offset="0.824" stop-color="#D20250" stop-opacity="0.824"/>
<stop offset="1" stop-color="#C00148"/>
</linearGradient>
<linearGradient id="paint29_linear_4717_10627" x1="5.34302" y1="19.6483" x2="4.9687" y2="21.3351" gradientUnits="userSpaceOnUse">
<stop stop-color="#FE0364" stop-opacity="0"/>
<stop offset="0.234" stop-color="#F90362" stop-opacity="0.234"/>
<stop offset="0.517" stop-color="#EA035B" stop-opacity="0.517"/>
<stop offset="0.824" stop-color="#D20250" stop-opacity="0.824"/>
<stop offset="1" stop-color="#C00148"/>
</linearGradient>
<clipPath id="clip0_4717_10627">
<rect width="40" height="40" fill="white"/>
</clipPath>
</defs>
</svg>
