<svg width="16" height="17" viewBox="0 0 16 17" fill="none" xmlns="http://www.w3.org/2000/svg">
<path fill-rule="evenodd" clip-rule="evenodd" d="M0.833008 7.88704C0.833008 4.12038 3.89967 1.05371 7.66634 1.05371C11.433 1.05371 14.4997 4.12038 14.4997 7.88704C14.4997 11.6537 11.433 14.7204 7.66634 14.7204C3.89967 14.7204 0.833008 11.6537 0.833008 7.88704ZM1.83301 7.88704C1.83301 11.1004 4.44634 13.7204 7.66634 13.7204C10.8863 13.7204 13.4997 11.1004 13.4997 7.88704C13.4997 4.67371 10.8863 2.05371 7.66634 2.05371C4.44634 2.05371 1.83301 4.67371 1.83301 7.88704Z" fill="#9B9DA1"/>
<path d="M14.3133 15.2407L12.98 13.9073C12.7866 13.714 12.7866 13.394 12.98 13.2007C13.1733 13.0073 13.4933 13.0073 13.6866 13.2007L15.02 14.534C15.2133 14.7273 15.2133 15.0473 15.02 15.2407C14.92 15.3407 14.7933 15.3873 14.6666 15.3873C14.54 15.3873 14.4133 15.3407 14.3133 15.2407Z" fill="#9B9DA1"/>
</svg>
