<svg width="20" height="20" viewBox="0 0 20 20" fill="none" xmlns="http://www.w3.org/2000/svg">
<path d="M14.1667 17.2084H5.83335C4.40743 17.2084 3.35073 16.7999 2.65045 16.0997C1.95017 15.3994 1.54169 14.3427 1.54169 12.9167V7.08342C1.54169 5.65749 1.95017 4.60079 2.65045 3.90051C3.35073 3.20023 4.40743 2.79175 5.83335 2.79175H14.1667C15.5926 2.79175 16.6493 3.20023 17.3496 3.90051C18.0499 4.60079 18.4584 5.65749 18.4584 7.08342V12.9167C18.4584 14.3427 18.0499 15.3994 17.3496 16.0997C16.6493 16.7999 15.5926 17.2084 14.1667 17.2084ZM5.83335 3.04175C4.5682 3.04175 3.53133 3.34917 2.81522 4.06528C2.0991 4.78139 1.79169 5.81826 1.79169 7.08342V12.9167C1.79169 14.1819 2.0991 15.2188 2.81522 15.9349C3.53133 16.651 4.5682 16.9584 5.83335 16.9584H14.1667C15.4318 16.9584 16.4687 16.651 17.1848 15.9349C17.9009 15.2188 18.2084 14.1819 18.2084 12.9167V7.08342C18.2084 5.81826 17.9009 4.78139 17.1848 4.06528C16.4687 3.34917 15.4318 3.04175 14.1667 3.04175H5.83335Z" fill="#292D32" stroke="#9CA3AF"/>
<path d="M8.36577 9.67913L8.36578 9.67911L8.36184 9.67596L5.75569 7.59438C5.69354 7.54298 5.6959 7.46498 5.72952 7.4236C5.78091 7.36036 5.85956 7.36256 5.90117 7.39637L5.90116 7.39638L5.90442 7.39899L8.51182 9.48158C8.51198 9.48171 8.51214 9.48184 8.5123 9.48196C8.93357 9.81987 9.47716 9.97289 9.99562 9.97289C10.5141 9.97289 11.0577 9.81987 11.4789 9.48196C11.4791 9.48184 11.4793 9.48171 11.4794 9.48158L14.0868 7.39899L14.0868 7.399L14.0901 7.39637C14.1443 7.35231 14.2191 7.36783 14.2512 7.41024L14.2564 7.41701L14.2617 7.4236C14.3058 7.47783 14.2903 7.55264 14.2479 7.58476L14.2478 7.58463L14.2378 7.59263L11.6294 9.67596L11.6294 9.6759L11.6226 9.68155C11.193 10.0372 10.6031 10.225 9.99979 10.225C9.39734 10.225 8.80546 10.0377 8.36577 9.67913Z" fill="#292D32" stroke="#9CA3AF"/>
</svg>
