<svg width="16" height="16" viewBox="0 0 16 16" fill="none" xmlns="http://www.w3.org/2000/svg">
<path d="M10.26 3.4735L11.2 5.35349C11.3267 5.61349 11.6667 5.86016 11.9534 5.91349L13.6534 6.19349C14.74 6.37349 14.9934 7.16016 14.2134 7.94682L12.8867 9.27349C12.6667 9.49349 12.54 9.92683 12.6134 10.2402L12.9934 11.8802C13.2934 13.1735 12.6 13.6802 11.46 13.0002L9.86669 12.0535C9.58002 11.8802 9.10003 11.8802 8.81336 12.0535L7.22002 13.0002C6.08002 13.6735 5.38669 13.1735 5.68669 11.8802L6.0667 10.2402C6.14003 9.93349 6.01336 9.50016 5.79336 9.27349L4.4667 7.94682C3.6867 7.16682 3.94003 6.38015 5.0267 6.19349L6.72669 5.91349C7.01336 5.86682 7.35336 5.61349 7.48003 5.35349L8.42003 3.4735C8.92003 2.4535 9.7467 2.4535 10.26 3.4735Z" stroke="#254EDB" stroke-linecap="round" stroke-linejoin="round"/>
<path d="M5.33331 3.3335H1.33331" stroke="#254EDB" stroke-linecap="round" stroke-linejoin="round"/>
<path d="M3.33331 12.6665H1.33331" stroke="#254EDB" stroke-linecap="round" stroke-linejoin="round"/>
<path d="M1.99998 8H1.33331" stroke="#254EDB" stroke-linecap="round" stroke-linejoin="round"/>
</svg>
