<svg width="25" height="24" viewBox="0 0 25 24" fill="none" xmlns="http://www.w3.org/2000/svg">
<path d="M13.2834 3.5571L15.5549 8.14281C15.6065 8.25921 15.6878 8.36002 15.7906 8.43522C15.8933 8.51042 16.014 8.55736 16.1406 8.57138L21.1549 9.31424C21.3001 9.3329 21.4369 9.39249 21.5495 9.48603C21.6621 9.57958 21.7458 9.70323 21.7907 9.84255C21.8356 9.98186 21.84 10.1311 21.8033 10.2728C21.7666 10.4145 21.6904 10.5428 21.5834 10.6428L17.9692 14.2285C17.8769 14.3147 17.8077 14.4226 17.7678 14.5423C17.7278 14.6621 17.7185 14.79 17.7406 14.9142L18.612 19.9571C18.6372 20.102 18.6213 20.2511 18.566 20.3874C18.5107 20.5236 18.4182 20.6417 18.2991 20.728C18.1801 20.8143 18.0391 20.8655 17.8924 20.8757C17.7457 20.8859 17.599 20.8547 17.4692 20.7857L12.9549 18.4C12.8393 18.3432 12.7122 18.3137 12.5834 18.3137C12.4547 18.3137 12.3276 18.3432 12.212 18.4L7.69772 20.7857C7.56785 20.8547 7.42121 20.8859 7.27448 20.8757C7.12775 20.8655 6.98683 20.8143 6.86775 20.728C6.74867 20.6417 6.65621 20.5236 6.6009 20.3874C6.54558 20.2511 6.52964 20.102 6.55487 19.9571L7.4263 14.8571C7.44838 14.7328 7.43904 14.605 7.39912 14.4852C7.3592 14.3654 7.28997 14.2576 7.19773 14.1714L3.54058 10.6428C3.43239 10.5401 3.3563 10.4082 3.32153 10.2631C3.28676 10.118 3.29482 9.96598 3.34471 9.82538C3.3946 9.68478 3.48419 9.56166 3.60263 9.47094C3.72106 9.38022 3.86327 9.32579 4.01201 9.31424L9.0263 8.57138C9.15286 8.55736 9.27355 8.51042 9.37632 8.43522C9.47909 8.36002 9.56035 8.25921 9.61201 8.14281L11.8834 3.5571C11.9453 3.42354 12.0441 3.31046 12.1681 3.23122C12.2921 3.15197 12.4363 3.10986 12.5834 3.10986C12.7306 3.10986 12.8747 3.15197 12.9988 3.23122C13.1228 3.31046 13.2216 3.42354 13.2834 3.5571Z" fill="#FFD714" stroke="#FFD714" stroke-width="1.53509" stroke-linecap="round" stroke-linejoin="round"/>
</svg>
