<svg width="25" height="24" viewBox="0 0 25 24" fill="none" xmlns="http://www.w3.org/2000/svg">
<path d="M13.3668 3.5571L15.6382 8.14281C15.6899 8.25921 15.7712 8.36002 15.8739 8.43522C15.9767 8.51042 16.0974 8.55736 16.224 8.57138L21.2382 9.31424C21.3834 9.3329 21.5203 9.39249 21.6329 9.48603C21.7455 9.57958 21.8291 9.70323 21.8741 9.84255C21.919 9.98186 21.9234 10.1311 21.8867 10.2728C21.85 10.4145 21.7737 10.5428 21.6668 10.6428L18.0525 14.2285C17.9603 14.3147 17.8911 14.4226 17.8511 14.5423C17.8112 14.6621 17.8019 14.79 17.824 14.9142L18.6954 19.9571C18.7206 20.102 18.7047 20.2511 18.6494 20.3874C18.594 20.5236 18.5016 20.6417 18.3825 20.728C18.2634 20.8143 18.1225 20.8655 17.9758 20.8757C17.829 20.8859 17.6824 20.8547 17.5525 20.7857L13.0382 18.4C12.9226 18.3432 12.7956 18.3137 12.6668 18.3137C12.538 18.3137 12.411 18.3432 12.2954 18.4L7.7811 20.7857C7.65122 20.8547 7.50458 20.8859 7.35785 20.8757C7.21112 20.8655 7.0702 20.8143 6.95112 20.728C6.83204 20.6417 6.73958 20.5236 6.68427 20.3874C6.62896 20.2511 6.61301 20.102 6.63824 19.9571L7.50967 14.8571C7.53176 14.7328 7.52241 14.605 7.48249 14.4852C7.44257 14.3654 7.37334 14.2576 7.2811 14.1714L3.62396 10.6428C3.51576 10.5401 3.43967 10.4082 3.4049 10.2631C3.37014 10.118 3.37819 9.96598 3.42808 9.82538C3.47797 9.68478 3.56756 9.56166 3.686 9.47094C3.80444 9.38022 3.94664 9.32579 4.09538 9.31424L9.10967 8.57138C9.23624 8.55736 9.35692 8.51042 9.45969 8.43522C9.56246 8.36002 9.64372 8.25921 9.69539 8.14281L11.9668 3.5571C12.0287 3.42354 12.1274 3.31046 12.2515 3.23122C12.3755 3.15197 12.5196 3.10986 12.6668 3.10986C12.814 3.10986 12.9581 3.15197 13.0822 3.23122C13.2062 3.31046 13.305 3.42354 13.3668 3.5571V3.5571Z" stroke="#F4F4F5" stroke-width="1.45833" stroke-linecap="round" stroke-linejoin="round"/>
</svg>
