<svg width="12" height="13" viewBox="0 0 12 13" fill="none" xmlns="http://www.w3.org/2000/svg">
<path d="M8.83 11.8352C8.565 11.8352 8.225 11.7502 7.8 11.5002L6.305 10.6152C6.15 10.5252 5.85 10.5252 5.7 10.6152L4.2 11.5002C3.315 12.0252 2.795 11.8152 2.56 11.6452C2.33 11.4752 1.97 11.0402 2.205 10.0402L2.56 8.50516C2.6 8.34516 2.52 8.07016 2.4 7.95016L1.16 6.71016C0.539998 6.09016 0.589998 5.56016 0.674998 5.30016C0.759998 5.04016 1.03 4.58016 1.89 4.43516L3.485 4.17016C3.635 4.14516 3.85 3.98516 3.915 3.85016L4.8 2.08516C5.2 1.28016 5.725 1.16016 6 1.16016C6.275 1.16016 6.8 1.28016 7.2 2.08516L8.08 3.84516C8.15 3.98016 8.365 4.14016 8.515 4.16516L10.11 4.43016C10.975 4.57516 11.245 5.03516 11.325 5.29516C11.405 5.55516 11.455 6.08516 10.84 6.70516L9.6 7.95016C9.48 8.07016 9.405 8.34016 9.44 8.50516L9.795 10.0402C10.025 11.0402 9.67 11.4752 9.44 11.6452C9.315 11.7352 9.115 11.8352 8.83 11.8352ZM6 9.79516C6.245 9.79516 6.49 9.85516 6.685 9.97016L8.18 10.8552C8.615 11.1152 8.89 11.1152 8.995 11.0402C9.1 10.9652 9.175 10.7002 9.065 10.2102L8.71 8.67516C8.615 8.26016 8.77 7.72516 9.07 7.42016L10.31 6.18016C10.555 5.93516 10.665 5.69516 10.615 5.53016C10.56 5.36516 10.33 5.23016 9.99 5.17516L8.395 4.91016C8.01 4.84516 7.59 4.53516 7.415 4.18516L6.535 2.42516C6.375 2.10516 6.175 1.91516 6 1.91516C5.825 1.91516 5.625 2.10516 5.47 2.42516L4.585 4.18516C4.41 4.53516 3.99 4.84516 3.605 4.91016L2.015 5.17516C1.675 5.23016 1.445 5.36516 1.39 5.53016C1.335 5.69516 1.45 5.94016 1.695 6.18016L2.935 7.42016C3.235 7.72016 3.39 8.26016 3.295 8.67516L2.94 10.2102C2.825 10.7052 2.905 10.9652 3.01 11.0402C3.115 11.1152 3.385 11.1102 3.825 10.8552L5.32 9.97016C5.51 9.85516 5.755 9.79516 6 9.79516Z" fill="#45AA23"/>
</svg>
