<svg width="25" height="25" viewBox="0 0 25 25" fill="none" xmlns="http://www.w3.org/2000/svg">
<path d="M21.5901 7.48002C20.7401 6.54002 19.3201 6.07002 17.2601 6.07002H17.0201V6.03002C17.0201 4.35002 17.0201 2.27002 13.2601 2.27002H11.7401C7.98004 2.27002 7.98004 4.36002 7.98004 6.03002V6.08002H7.74004C5.67004 6.08002 4.26004 6.55002 3.41004 7.49002C2.42004 8.59002 2.45004 10.07 2.55004 11.08L2.56004 11.15L2.66004 12.2C2.67004 12.21 2.69004 12.23 2.71004 12.24C3.04004 12.46 3.38004 12.68 3.74004 12.88C3.88004 12.97 4.03004 13.05 4.18004 13.13C5.89004 14.07 7.77004 14.7 9.68004 15.01C9.77004 15.95 10.1801 17.05 12.3701 17.05C14.5601 17.05 14.9901 15.96 15.0601 14.99C17.1001 14.66 19.0701 13.95 20.8501 12.91C20.9101 12.88 20.9501 12.85 21.0001 12.82C21.4601 12.56 21.8901 12.28 22.3101 11.97C22.3301 11.96 22.3501 11.94 22.3601 11.92L22.4001 11.56L22.4501 11.09C22.4601 11.03 22.4601 10.98 22.4701 10.91C22.5501 9.90002 22.5301 8.52002 21.5901 7.48002ZM13.5901 14.33C13.5901 15.39 13.5901 15.55 12.3601 15.55C11.1301 15.55 11.1301 15.36 11.1301 14.34V13.08H13.5901V14.33ZM9.41004 6.07002V6.03002C9.41004 4.33002 9.41004 3.70002 11.7401 3.70002H13.2601C15.5901 3.70002 15.5901 4.34002 15.5901 6.03002V6.08002H9.41004V6.07002Z" fill="#2103ED"/>
<path opacity="0.4" d="M20.9999 12.7999C20.9499 12.8299 20.8999 12.8599 20.8499 12.8899C19.0699 13.9299 17.0999 14.6299 15.0599 14.9699C14.9799 15.9299 14.5599 17.0299 12.3699 17.0299C10.1799 17.0299 9.75991 15.9399 9.67991 14.9899C7.76991 14.6899 5.88991 14.0599 4.17991 13.1099C4.02991 13.0299 3.87991 12.9499 3.73991 12.8599C3.37991 12.6599 3.03991 12.4399 2.70991 12.2199C2.68991 12.2099 2.66991 12.1899 2.65991 12.1799L3.26991 18.6899C3.47991 20.6799 4.29991 22.7299 8.69991 22.7299H16.3199C20.7199 22.7299 21.5399 20.6799 21.7499 18.6799L22.3799 11.8999C22.3699 11.9199 22.3499 11.9399 22.3299 11.9499C21.8999 12.2599 21.4599 12.5499 20.9999 12.7999Z" fill="#2103ED"/>
</svg>
