<svg width="25" height="25" viewBox="0 0 25 25" fill="none" xmlns="http://www.w3.org/2000/svg">
<path d="M16.5 23.2498H8.49998C3.87998 23.2498 3.01998 21.0998 2.79998 19.0098L2.04998 10.9998C1.93998 9.94977 1.90998 8.39977 2.94998 7.23977C3.84998 6.23977 5.33998 5.75977 7.49998 5.75977H17.5C19.67 5.75977 21.16 6.24977 22.05 7.23977C23.09 8.39977 23.06 9.94977 22.95 11.0098L22.2 18.9998C21.98 21.0998 21.12 23.2498 16.5 23.2498ZM7.49998 7.24977C5.80998 7.24977 4.64998 7.57977 4.05998 8.23977C3.56998 8.77977 3.40998 9.60977 3.53998 10.8498L4.28998 18.8598C4.45998 20.4398 4.88998 21.7498 8.49998 21.7498H16.5C20.1 21.7498 20.54 20.4398 20.71 18.8498L21.46 10.8598C21.59 9.60977 21.43 8.77977 20.94 8.23977C20.35 7.57977 19.19 7.24977 17.5 7.24977H7.49998Z" fill="#9CA3AF"/>
<path d="M16.5 7.25C16.09 7.25 15.75 6.91 15.75 6.5V5.7C15.75 3.92 15.75 3.25 13.3 3.25H11.7C9.25 3.25 9.25 3.92 9.25 5.7V6.5C9.25 6.91 8.91 7.25 8.5 7.25C8.09 7.25 7.75 6.91 7.75 6.5V5.7C7.75 3.94 7.75 1.75 11.7 1.75H13.3C17.25 1.75 17.25 3.94 17.25 5.7V6.5C17.25 6.91 16.91 7.25 16.5 7.25Z" fill="#9CA3AF"/>
<path d="M12.5 17.25C9.75 17.25 9.75 15.55 9.75 14.53V13.5C9.75 12.09 10.09 11.75 11.5 11.75H13.5C14.91 11.75 15.25 12.09 15.25 13.5V14.5C15.25 15.54 15.25 17.25 12.5 17.25ZM11.25 13.25C11.25 13.33 11.25 13.42 11.25 13.5V14.53C11.25 15.56 11.25 15.75 12.5 15.75C13.75 15.75 13.75 15.59 13.75 14.52V13.5C13.75 13.42 13.75 13.33 13.75 13.25C13.67 13.25 13.58 13.25 13.5 13.25H11.5C11.42 13.25 11.33 13.25 11.25 13.25Z" fill="#9CA3AF"/>
<path d="M14.5 15.2702C14.13 15.2702 13.8 14.9902 13.76 14.6102C13.71 14.2002 14 13.8202 14.41 13.7702C17.05 13.4402 19.58 12.4402 21.71 10.8902C22.04 10.6402 22.51 10.7202 22.76 11.0602C23 11.3902 22.93 11.8602 22.59 12.1102C20.25 13.8102 17.49 14.9002 14.59 15.2702C14.56 15.2702 14.53 15.2702 14.5 15.2702Z" fill="#9CA3AF"/>
<path d="M10.5 15.2799C10.47 15.2799 10.44 15.2799 10.41 15.2799C7.66999 14.9699 4.99999 13.9699 2.68999 12.3899C2.34999 12.1599 2.25999 11.6899 2.48999 11.3499C2.71999 11.0099 3.18999 10.9199 3.52999 11.1499C5.63999 12.5899 8.06999 13.4999 10.57 13.7899C10.98 13.8399 11.28 14.2099 11.23 14.6199C11.2 14.9999 10.88 15.2799 10.5 15.2799Z" fill="#9CA3AF"/>
</svg>
