<svg width="24" height="25" viewBox="0 0 24 25" fill="none" xmlns="http://www.w3.org/2000/svg">
<path d="M21.08 9.08003V15.92C21.08 17.04 20.48 18.08 19.51 18.65L13.57 22.08C12.6 22.64 11.4 22.64 10.42 22.08L4.48 18.65C3.51 18.09 2.91 17.05 2.91 15.92V9.08003C2.91 7.96003 3.51 6.91999 4.48 6.34999L10.42 2.92C11.39 2.36 12.59 2.36 13.57 2.92L19.51 6.34999C20.48 6.91999 21.08 7.95003 21.08 9.08003Z" stroke="#374151" stroke-width="1.5" stroke-linecap="round" stroke-linejoin="round"/>
<path d="M12 11.4998C13.2868 11.4998 14.33 10.4566 14.33 9.1698C14.33 7.88298 13.2868 6.83984 12 6.83984C10.7132 6.83984 9.67001 7.88298 9.67001 9.1698C9.67001 10.4566 10.7132 11.4998 12 11.4998Z" stroke="#374151" stroke-width="1.5" stroke-linecap="round" stroke-linejoin="round"/>
<path d="M16 17.1594C16 15.3594 14.21 13.8994 12 13.8994C9.79 13.8994 8 15.3594 8 17.1594" stroke="#374151" stroke-width="1.5" stroke-linecap="round" stroke-linejoin="round"/>
</svg>
