<svg width="22" height="22" viewBox="0 0 22 22" fill="none" xmlns="http://www.w3.org/2000/svg">
<path d="M18.3058 9.1665H3.63916V16.4998C3.63916 19.2498 4.55583 20.1665 7.30583 20.1665H14.6392C17.3892 20.1665 18.3058 19.2498 18.3058 16.4998V9.1665Z" stroke="white" stroke-width="1.375" stroke-miterlimit="10" stroke-linecap="round" stroke-linejoin="round"/>
<path d="M19.7083 6.41683V7.3335C19.7083 8.34183 19.2225 9.16683 17.875 9.16683H4.12496C2.72246 9.16683 2.29163 8.34183 2.29163 7.3335V6.41683C2.29163 5.4085 2.72246 4.5835 4.12496 4.5835H17.875C19.2225 4.5835 19.7083 5.4085 19.7083 6.41683Z" stroke="white" stroke-width="1.375" stroke-miterlimit="10" stroke-linecap="round" stroke-linejoin="round"/>
<path d="M10.67 4.58316H5.61001C5.29834 4.24399 5.30751 3.72149 5.63751 3.39149L6.93917 2.08982C7.27834 1.75066 7.83751 1.75066 8.17667 2.08982L10.67 4.58316Z" stroke="white" stroke-width="1.375" stroke-miterlimit="10" stroke-linecap="round" stroke-linejoin="round"/>
<path d="M16.3808 4.58316H11.3208L13.8141 2.08982C14.1533 1.75066 14.7125 1.75066 15.0516 2.08982L16.3533 3.39149C16.6833 3.72149 16.6925 4.24399 16.3808 4.58316Z" stroke="white" stroke-width="1.375" stroke-miterlimit="10" stroke-linecap="round" stroke-linejoin="round"/>
<path d="M8.19495 9.1665V13.8782C8.19495 14.6115 9.00161 15.0423 9.61578 14.6482L10.4774 14.0798C10.7891 13.8782 11.1833 13.8782 11.4858 14.0798L12.3016 14.6298C12.9066 15.0332 13.7224 14.6023 13.7224 13.869V9.1665H8.19495Z" stroke="white" stroke-width="1.375" stroke-miterlimit="10" stroke-linecap="round" stroke-linejoin="round"/>
</svg>
